<?xml version="1.0" encoding="utf-8"?>
<!-- Generator: Adobe Illustrator 26.0.1, SVG Export Plug-In . SVG Version: 6.00 Build 0)  -->
<svg version="1.1" xmlns="http://www.w3.org/2000/svg" xmlns:xlink="http://www.w3.org/1999/xlink" x="0px" y="0px"
	 viewBox="0 0 955 680.5" style="enable-background:new 0 0 955 680.5;" xml:space="preserve">
<style type="text/css">
	.st0{fill:#457028;}
	.st1{fill:#C4A39F;}
	.st2{fill:#09090A;}
	.st3{fill:#E0C1AA;}
	.st4{fill:#D8B293;}
	.st5{fill:#C19A7C;}
	.st6{fill:#000523;}
	.st7{fill:#0C0C0D;}
	.st8{fill:#00183F;}
	.st9{fill:#B6E895;}
	.st10{display:none;}
	.st11{display:inline;fill:none;stroke:#535461;stroke-width:2;stroke-miterlimit:10;}
	.st12{display:inline;opacity:0.1;fill:#252223;enable-background:new    ;}
	.st13{display:inline;opacity:0.3;fill:#8E44AD;enable-background:new    ;}
	.st14{display:inline;opacity:0.4;fill:#FFFFFF;enable-background:new    ;}
	.st15{display:inline;fill:#8E44AD;}
	.st16{display:inline;fill:none;stroke:#535461;stroke-miterlimit:10;}
	.st17{display:inline;opacity:0.25;enable-background:new    ;}
	.st18{display:inline;fill:url(#SVGID_1_);}
	.st19{display:inline;fill:url(#SVGID_00000147899846887085177050000005917574273335649452_);}
	.st20{display:inline;fill:url(#SVGID_00000070085597618900217300000014551217355864783248_);}
	.st21{display:inline;fill:url(#SVGID_00000033343760672077119800000003293364637553162932_);}
	.st22{display:inline;fill:#333333;}
	.st23{display:inline;fill:#535461;}
	.st24{display:inline;opacity:3.000000e-02;enable-background:new    ;}
	.st25{display:inline;opacity:0.1;}
	.st26{display:inline;fill:#FDA57D;}
	.st27{display:inline;fill:#4D8AF0;}
	.st28{display:inline;fill:#F2F2F2;}
	.st29{display:inline;fill:#72351C;}
	.st30{display:inline;fill:#CBDAE3;}
	.st31{display:inline;fill:#E9E9E9;}
	.st32{display:inline;fill:#F48681;}
	.st33{display:inline;opacity:5.000000e-02;enable-background:new    ;}
	.st34{display:inline;fill:#98B797;}
	.st35{display:inline;fill:#12660C;}
	.st36{display:inline;fill:#66655E;}
	.st37{display:inline;fill:#9BA5A1;}
	.st38{display:inline;fill:#D8B293;}
	.st39{display:inline;fill:#FFFFFF;stroke:#000000;stroke-miterlimit:10;}
	.st40{display:inline;fill:#124684;}
	.st41{display:inline;fill:#C19C7C;}
	.st42{display:inline;fill:#C79F80;}
	.st43{display:inline;fill:#090B0A;}
	.st44{display:inline;fill:#595C50;}
	.st45{display:inline;fill:#75746C;}
	.st46{display:inline;fill:#878F8D;}
	.st47{display:inline;fill:#BACCC6;}
	.st48{display:inline;}
	.st49{display:inline;fill:#022147;}
	.st50{display:inline;fill:#EDEDED;}
	.st51{display:inline;fill:#C6C6C6;}
</style>
<g id="a1e1094a-0c8c-49ef-9e46-7b691cb0c375">
	<polygon class="st0" points="1051,14.2 1051,774 -207,291 -21.6,-199 	"/>
	<polygon class="st1" points="895.1,395.2 576.1,29.3 -89.9,330.8 -89.9,732.3 509.1,732.3 924.1,713.3 	"/>
	
		<image style="display:none;overflow:visible;" width="640" height="320" xlink:href="../../../manfaat-dari-beragam-terapi-totok-manfaat-dari-beragam-terapi-totok-1408154.jpg"  transform="matrix(1.6304 0 0 2.1572 -81.4424 2.3333)">
	</image>
	<path class="st2" d="M403.4,62.5l-66.5-47.1l-67.2,11.7L205,107l17,71l67.2,195.7l57.2,127.5c0,0,34.7,30.8,38.3,39.7
		s61.3,43.1,61.3,43.1l15.2,31.3H485l4.5,16.9l13.8,5.4l-5.1,42.9l-9.7,7.5l17.6,25l59-97.6L611,577l83-52.8l50.1-44.1l26.8-29.8
		l17.2-15.9l0-15.7L775.2,408l-41,50.3l-77.3,17.8l-39.5-2.9l-20.6-6.6l-29.1-12.2L470.1,384L482,282l7.5-132l16.7-60.2L544,62.5
		l54,10.9L630.1,97l-65-61.7l-61.9-5.4l-89.2,24.7L403.4,62.5z"/>
	<polygon class="st3" points="570.4,457.5 611.8,472.5 666.9,480.2 724.2,468 752.8,447.9 777.1,415.6 771.2,367.3 763.3,340.9 
		762.3,317 747.3,267 733.1,239 712.7,177.2 694,153.1 672.5,152.7 643.3,117.2 625.2,93.4 591.4,66.9 540.2,60.1 498.2,93.4 
		481.6,137.5 472.2,302.7 481.3,393.5 	"/>
	<polygon class="st4" points="542,44.6 537.1,12.6 549.6,-12.8 660.7,-19 660.7,-7.4 664.2,2.8 679.2,15.5 731.8,35.3 760.5,57 
		766,88 770.2,131.9 782.9,164.1 786.6,193.6 777.1,213 771.2,239 773.3,255.9 777.1,277.5 762.3,285.4 757.3,282 716.3,132 701,76 
		696.7,90.9 701,112 716.6,146.7 703.8,153.1 701,159 674,150 639.4,112 613.1,73.4 580.2,54.7 	"/>
	<polygon class="st2" points="701,159 707.8,151 720.3,146.7 739.5,156.6 755.8,197.5 763.3,250.8 757.1,275.7 752.8,285.4 
		726.8,220 701,162.2 	"/>
	<polygon class="st2" points="515.9,313.8 537.1,312 569.3,319 587.3,344 598,386.7 592.3,422 574,453.1 564.7,460 559,463.7 
		527.7,434.3 459.2,423.2 397.6,392.1 463.3,387.8 523,382 513,345.5 490.7,337.5 	"/>
	<polygon class="st5" points="261.7,229.3 284.4,216.3 377.8,231.6 406,245.8 455.3,285.4 482.4,298.8 513,304.5 517.6,315.6 
		515.3,329.8 503.2,339.8 473.9,341 426.3,323.6 400.5,312.1 352.7,271.2 	"/>
	<polygon class="st4" points="148.2,153.1 351,248.9 364.1,267.3 370.9,289.5 396.4,310.8 446,326 471.2,333.8 501.5,335.8 
		535.8,353.9 552.2,371.8 552.2,391.3 545.3,398.3 510.9,398.3 491.8,396 476.1,391.3 460.7,398.5 439,402 410,398.3 381.3,384 
		397,396 424.3,404.6 442.7,415.6 459.2,426 472.2,427 492.7,431.5 512,434.3 537.1,440 559,460 559.2,480.2 554.5,490.3 538,490 
		510,490 483.8,490 462.4,486 446.4,492.6 435.2,490.3 364.1,454.4 439,496 459.2,490 537.6,482.6 544,496 526.9,502.7 507.3,507.7 
		496.5,513.3 442.7,512.9 432.1,517.6 370,479 339.3,475 315.3,467 242.4,345.5 211.8,338 141.5,314.9 120.5,307 105.5,289.5 
		98.4,277.5 100.7,255.2 129.3,175.1 	"/>
	<polygon class="st6" points="470.1,-16.3 537.1,45 570.7,-40.3 	"/>
	<polygon class="st7" points="194.3,-5 248,27.2 255.1,57.3 208,138.3 201.3,187.9 -143.3,-49.7 	"/>
	<polygon class="st8" points="161,144.4 98.8,273.5 116.1,323.4 78.8,318.3 -19.3,255.9 -146.7,197.5 -113.3,-58.3 86.9,97 	"/>
	<polygon points="574.7,218.8 554.5,237 501.5,276.1 535.3,258.3 572,229.2 576,218.8 	"/>
	<polygon points="630.1,179.7 640,168.6 655.1,159 663.6,146.7 664.7,157.7 656.4,164.6 	"/>
	<polygon class="st9" points="978,340.2 917,296 898,307 886,364.2 878,402 860,434 843,450 821,450 803,439 788.1,434.3 
		732.2,480.2 683,522 637.7,560 603,570 576,594 538.7,638 496.5,713 972,699 978,347.5 	"/>
</g>
<g id="Layer_2" class="st10">
	<path class="st11" d="M-133.2,637.6"/>
	<path class="st12" d="M857.6,578c-7.1,3.7-14.6,6.8-21.9,10c-27.2,11.5-54.8,23.1-84,27c-54.9,7.3-111.5-12.7-165.4-0.2
		c-45.2,10.4-82.5,42.3-126.6,56.6c-20.5,6.6-41.8,9.2-63.4,9.2h-2.8c-2.7,0-5.3-0.1-7.9-0.2c-21.8-0.8-43.8-4-65.1-8.2
		c-67.6-13-136.3-36.8-188-80.7C282.8,563.9,592.7,521.8,857.6,578z"/>
	<polygon class="st13" points="910,249 910,185 872,185 872,249 827,249 827,150 794,150 794,76 767,76 767,0 711,0 711,76 684,76 
		684,150 652,150 652,61 634,61 634,16 623,16 623,61 559,61 559,345 510,345 510,315 480,315 480,345 431,345 431,249 343,249 
		343,185 305,185 305,249 303,249 303,372 263,372 263,300 215,300 215,372 175,372 175,150 144,150 144,76 30,76 30,150 0,150 
		0,541 175,541 303,541 431,541 559,541 652,541 827,541 955,541 955,249 	"/>
	<rect x="19" y="173" class="st14" width="42" height="24"/>
	<rect x="113" y="173" class="st14" width="42" height="24"/>
	<rect x="19" y="220" class="st14" width="42" height="24"/>
	<rect x="113" y="220" class="st14" width="42" height="24"/>
	<rect x="19" y="267" class="st14" width="42" height="24"/>
	<rect x="113" y="267" class="st14" width="42" height="24"/>
	<rect x="19" y="314" class="st14" width="42" height="24"/>
	<rect x="113" y="314" class="st14" width="42" height="24"/>
	<rect x="19" y="361" class="st14" width="42" height="24"/>
	<rect x="113" y="361" class="st14" width="42" height="24"/>
	<rect x="19" y="408" class="st14" width="42" height="24"/>
	<rect x="113" y="408" class="st14" width="42" height="24"/>
	<rect x="19" y="455" class="st14" width="42" height="24"/>
	<rect x="113" y="455" class="st14" width="42" height="24"/>
	<rect x="190" y="396" class="st14" width="98" height="12"/>
	<rect x="190" y="414" class="st14" width="98" height="12"/>
	<rect x="190" y="432" class="st14" width="98" height="12"/>
	<rect x="446" y="402" class="st14" width="98" height="12"/>
	<rect x="446" y="420" class="st14" width="98" height="12"/>
	<rect x="446" y="438" class="st14" width="98" height="12"/>
	<rect x="190" y="450" class="st14" width="98" height="12"/>
	<rect x="190" y="468" class="st14" width="98" height="12"/>
	<rect x="190" y="486" class="st14" width="98" height="12"/>
	<rect x="324" y="272" class="st14" width="27" height="35"/>
	<rect x="383" y="272" class="st14" width="27" height="35"/>
	<rect x="324" y="328" class="st14" width="27" height="35"/>
	<rect x="383" y="328" class="st14" width="27" height="35"/>
	<rect x="324" y="384" class="st14" width="27" height="35"/>
	<rect x="383" y="384" class="st14" width="27" height="35"/>
	<rect x="324" y="440" class="st14" width="27" height="35"/>
	<rect x="383" y="440" class="st14" width="27" height="35"/>
	<rect x="559" y="84" class="st14" width="36" height="46"/>
	<rect x="559" y="150" class="st14" width="36" height="46"/>
	<rect x="559" y="216" class="st14" width="36" height="46"/>
	<rect x="559" y="282" class="st14" width="36" height="46"/>
	<rect x="559" y="348" class="st14" width="36" height="46"/>
	<rect x="559" y="414" class="st14" width="36" height="46"/>
	<rect x="672.5" y="178" class="st14" width="134" height="39"/>
	<rect x="673" y="262" class="st14" width="134" height="39"/>
	<rect x="673.5" y="346" class="st14" width="134" height="39"/>
	<rect x="674" y="430" class="st14" width="134" height="39"/>
	<rect x="30" y="97" class="st14" width="18" height="38"/>
	<rect x="910" y="272" class="st14" width="45" height="58"/>
	<rect x="910" y="356" class="st14" width="45" height="58"/>
	<rect x="910" y="440" class="st14" width="45" height="58"/>
	<path class="st15" d="M49.7,479.5c0,0-78.7,47.5,66.4,120.6c0,0,32-59.4-3.4-107.8c-14.2-19.5-40.8-25.3-61.8-13.5L49.7,479.5z"/>
	<path class="st16" d="M50.6,478.5c0,0,67.4,51.5,65.5,121.6"/>
	<path class="st11" d="M119.7,602.9c0,0-24.7-83.8,4.6-145.4c12.3-25.9,16.4-54.9,10.7-83c-2.7-13.3-6.6-26.4-11.8-39"/>
	<path class="st15" d="M141.5,296.6c0,10.3-18.6,40-18.6,40s-18.6-29.8-18.6-40c-0.2-10.3,7.9-18.8,18.2-19s18.8,7.9,19,18.2
		C141.5,296,141.5,296.3,141.5,296.6L141.5,296.6z"/>
	<path class="st15" d="M172.3,353.4c-5.6,8.6-37.4,23.5-37.4,23.5s0.6-35.1,6.2-43.7c5.8-8.5,17.4-10.6,25.8-4.9
		C175.1,333.9,177.4,345,172.3,353.4L172.3,353.4z"/>
	<path class="st15" d="M170.9,450.6c-9.2,4.6-44.1,1.4-44.1,1.4s18.2-30,27.4-34.6c9.3-4.4,20.4-0.5,24.8,8.7
		C183.3,435.1,179.7,445.9,170.9,450.6L170.9,450.6z"/>
	<path class="st15" d="M153.3,523.9c-8.2,6.1-43.2,8.9-43.2,8.9s12.9-32.6,21.1-38.8c8.2-6.2,19.9-4.5,26,3.7s4.5,19.9-3.7,26
		C153.5,523.8,153.4,523.8,153.3,523.9z"/>
	<path class="st15" d="M95.9,378.9c7.4,7.1,41.7,14.6,41.7,14.6s-8.4-34.1-15.8-41.2c-7.2-7.3-19-7.4-26.3-0.2
		c-7.3,7.2-7.4,19-0.2,26.3C95.5,378.5,95.7,378.7,95.9,378.9L95.9,378.9z"/>
	<path class="st15" d="M76.4,464.9c9.2,4.6,44.1,1.4,44.1,1.4s-18.2-30-27.4-34.6c-9.3-4.4-20.4-0.5-24.8,8.7
		C64,449.4,67.6,460.2,76.4,464.9L76.4,464.9z"/>
	<path class="st15" d="M69,551c8.2,6.1,43.2,8.9,43.2,8.9s-12.9-32.6-21.1-38.7c-8.3-6-19.9-4.2-26,4.1
		C59.1,533.5,60.8,544.9,69,551L69,551z"/>
	<path class="st17" d="M141.5,296.6c0,10.3-18.6,40-18.6,40s-18.6-29.8-18.6-40c-0.2-10.3,7.9-18.8,18.2-19s18.8,7.9,19,18.2
		C141.5,296,141.5,296.3,141.5,296.6L141.5,296.6z"/>
	<path class="st17" d="M172.3,353.4c-5.6,8.6-37.4,23.5-37.4,23.5s0.6-35.1,6.2-43.7c5.8-8.5,17.4-10.6,25.8-4.9
		C175.1,333.9,177.4,345,172.3,353.4L172.3,353.4z"/>
	<path class="st17" d="M170.9,450.6c-9.2,4.6-44.1,1.4-44.1,1.4s18.2-30,27.4-34.6c9.3-4.4,20.4-0.5,24.8,8.7
		C183.3,435.1,179.7,445.9,170.9,450.6L170.9,450.6z"/>
	<path class="st17" d="M153.3,523.9c-8.2,6.1-43.2,8.9-43.2,8.9s12.9-32.6,21.1-38.8c8.2-6.2,19.9-4.5,26,3.7s4.5,19.9-3.7,26
		C153.5,523.8,153.4,523.8,153.3,523.9z"/>
	<path class="st17" d="M95.9,378.9c7.4,7.1,41.7,14.6,41.7,14.6s-8.4-34.1-15.8-41.2c-7.2-7.3-19-7.4-26.3-0.2
		c-7.3,7.2-7.4,19-0.2,26.3C95.5,378.5,95.7,378.7,95.9,378.9L95.9,378.9z"/>
	<path class="st17" d="M76.4,464.9c9.2,4.6,44.1,1.4,44.1,1.4s-18.2-30-27.4-34.6c-9.3-4.4-20.4-0.5-24.8,8.7
		C64,449.4,67.6,460.2,76.4,464.9L76.4,464.9z"/>
	<path class="st17" d="M69,551c8.2,6.1,43.2,8.9,43.2,8.9s-12.9-32.6-21.1-38.7c-8.3-6-19.9-4.2-26,4.1
		C59.1,533.5,60.8,544.9,69,551L69,551z"/>
	<path class="st11" d="M889.8,581.2c0,0-24.7-83.8,4.6-145.4c12.3-25.9,16.4-54.9,10.7-83c-2.7-13.3-6.6-26.4-11.8-39"/>
	<path class="st15" d="M911.6,274.9c0,10.3-18.6,40-18.6,40s-18.6-29.8-18.6-40c-0.2-10.3,7.9-18.8,18.2-19
		c10.3-0.2,18.8,7.9,19,18.2C911.6,274.4,911.6,274.6,911.6,274.9L911.6,274.9z"/>
	<path class="st15" d="M942.3,331.8c-5.6,8.6-37.4,23.5-37.4,23.5s0.6-35.1,6.2-43.7c5.4-8.8,16.8-11.5,25.6-6.1
		c8.8,5.4,11.5,16.8,6.1,25.6C942.7,331.3,942.5,331.5,942.3,331.8L942.3,331.8z"/>
	<path class="st15" d="M941,429c-9.2,4.6-44.1,1.4-44.1,1.4s18.2-30,27.4-34.6c9.3-4.4,20.4-0.5,24.8,8.7
		C953.4,413.5,949.8,424.3,941,429L941,429z"/>
	<path class="st15" d="M923.4,502.2c-8.2,6.1-43.2,8.9-43.2,8.9s12.9-32.6,21.1-38.8c8.3-6,19.9-4.2,26,4.1
		C933.2,484.7,931.5,496.1,923.4,502.2z"/>
	<path class="st15" d="M865.9,357.2c7.4,7.1,41.7,14.6,41.7,14.6s-8.4-34.1-15.8-41.2c-7.4-7.2-19.1-7-26.3,0.4
		C858.4,338.3,858.6,350.1,865.9,357.2z"/>
	<path class="st15" d="M846.5,443.2c9.2,4.6,44.1,1.4,44.1,1.4s-18.2-30-27.4-34.6c-9.3-4.4-20.4-0.4-24.8,8.9
		C834.2,427.9,837.8,438.6,846.5,443.2z"/>
	<path class="st15" d="M839,529.4c8.2,6.1,43.2,8.9,43.2,8.9s-12.9-32.6-21.1-38.8c-8.3-6-19.9-4.2-26,4.1
		C829.2,511.8,830.9,523.3,839,529.4z"/>
	<path class="st11" d="M778.5,573.1c0,0-13.3-45,2.5-78.1c6.7-13.9,8.7-29.5,5.8-44.6c-1.5-7.2-3.6-14.2-6.3-20.9"/>
	<path class="st15" d="M790.2,408.5c0,5.5-10,21.5-10,21.5s-10-16-10-21.5c0-5.5,4.5-10,10-10S790.2,403,790.2,408.5z"/>
	<path class="st15" d="M806.7,439c-3,4.6-20.1,12.6-20.1,12.6s0.3-18.9,3.3-23.5c2.8-4.8,8.9-6.4,13.7-3.6c4.8,2.8,6.4,8.9,3.6,13.7
		C807.1,438.5,806.9,438.8,806.7,439z"/>
	<path class="st15" d="M806,491.2c-4.9,2.5-23.7,0.8-23.7,0.8s9.8-16.1,14.7-18.6c5-2.3,11,0,13.2,5
		C812.4,483.1,810.5,488.7,806,491.2L806,491.2z"/>
	<path class="st15" d="M796.6,530.6c-4.4,3.3-23.2,4.8-23.2,4.8s6.9-17.5,11.4-20.8c4.6-3.1,10.8-1.8,13.9,2.8
		C801.4,521.6,800.5,527.4,796.6,530.6z"/>
	<path class="st15" d="M765.7,452.7c4,3.8,22.4,7.8,22.4,7.8s-4.5-18.3-8.5-22.2c-3.8-4-10.1-4.2-14.1-0.5c-4,3.8-4.2,10.1-0.5,14.1
		C765.2,452.3,765.4,452.5,765.7,452.7L765.7,452.7z"/>
	<path class="st15" d="M755.2,498.9c4.9,2.5,23.7,0.8,23.7,0.8s-9.8-16.1-14.7-18.6c-5-2.3-11,0-13.2,5
		C748.9,490.8,750.7,496.4,755.2,498.9L755.2,498.9z"/>
	<path class="st15" d="M751.2,545.2c4.4,3.3,23.2,4.8,23.2,4.8s-7-17.5-11.4-20.8c-4.6-3.1-10.8-1.9-13.9,2.6
		C746.3,536.1,747.1,542,751.2,545.2z"/>
	<path class="st12" d="M264.7,47.7h-6.9c2.7,0.1,4.9-1.9,5-4.6c0.1-2.7-1.9-4.9-4.6-5c-0.1,0-0.3,0-0.4,0h-55.7
		c-2.7,0.1-4.7,2.4-4.6,5c0.1,2.5,2.1,4.5,4.6,4.6h6.9c-2.7-0.1-4.9,1.9-5,4.6c-0.1,2.7,1.9,4.9,4.6,5c0.1,0,0.3,0,0.4,0h-9.6
		c-2.7-0.1-4.9,1.9-5,4.6c-0.1,2.7,1.9,4.9,4.6,5c0.1,0,0.3,0,0.4,0h55.7c2.7,0.1,4.9-1.9,5-4.6c0.1-2.7-1.9-4.9-4.6-5
		c-0.1,0-0.3,0-0.4,0h9.6c2.7,0.1,4.9-1.9,5-4.6c0.1-2.7-1.9-4.9-4.6-5C265,47.7,264.8,47.7,264.7,47.7L264.7,47.7z"/>
	<path class="st12" d="M510.7,168.7h-6.9c2.7,0.1,4.9-1.9,5-4.6c0.1-2.7-1.9-4.9-4.6-5c-0.1,0-0.3,0-0.4,0h-55.7
		c-2.7,0.1-4.7,2.4-4.6,5c0.1,2.5,2.1,4.5,4.6,4.6h6.9c-2.7-0.1-4.9,1.9-5,4.6c-0.1,2.7,1.9,4.9,4.6,5c0.1,0,0.3,0,0.4,0h-9.6
		c-2.7-0.1-4.9,1.9-5,4.6c-0.1,2.7,1.9,4.9,4.6,5c0.1,0,0.3,0,0.4,0H501c2.7,0.1,4.9-1.9,5-4.6c0.1-2.7-1.9-4.9-4.6-5
		c-0.1,0-0.3,0-0.4,0h9.6c2.7,0.1,4.9-1.9,5-4.6c0.1-2.7-1.9-4.9-4.6-5C511,168.7,510.8,168.7,510.7,168.7z"/>
	<path class="st12" d="M929.7,10.7h-6.9c2.7,0.1,4.9-1.9,5-4.6c0.1-2.7-1.9-4.9-4.6-5c-0.1,0-0.3,0-0.4,0h-55.7
		c-2.7,0.1-4.7,2.4-4.6,5c0.1,2.5,2.1,4.5,4.6,4.6h6.9c-2.7-0.1-4.9,1.9-5,4.6c-0.1,2.7,1.9,4.9,4.6,5c0.1,0,0.3,0,0.4,0h-9.6
		c-2.7-0.1-4.9,1.9-5,4.6c-0.1,2.7,1.9,4.9,4.6,5c0.1,0,0.3,0,0.4,0h55.7c2.7-0.1,4.7-2.4,4.6-5c-0.1-2.5-2.1-4.5-4.6-4.6h9.6
		c2.7,0.1,4.9-1.9,5-4.6s-1.9-4.9-4.6-5C930,10.7,929.8,10.7,929.7,10.7z"/>
	
		<linearGradient id="SVGID_1_" gradientUnits="userSpaceOnUse" x1="410.6919" y1="237.1134" x2="677" y2="237.1134" gradientTransform="matrix(1 0 0 -1 -122.5 572.25)">
		<stop  offset="0" style="stop-color:#808080;stop-opacity:0.25"/>
		<stop  offset="0.54" style="stop-color:#808080;stop-opacity:0.12"/>
		<stop  offset="1" style="stop-color:#808080;stop-opacity:0.1"/>
	</linearGradient>
	<path class="st18" d="M548.2,566.7h0.2c0,0-35.1-96.4-44.9-109.5c0,0-10.3-6.1-9.8-16.4L481,379.5c0,0,0.2-0.2,0.5-0.5l0.3-0.3
		l0.3-0.4c1.7-2,3.1-4.2,4.2-6.6l0.2-0.5c0.5-1.1,0.9-2.2,1.2-3.3c0.9,0.3,1.8,0.3,2.7-0.1c0,0,0-0.3,0-0.9l0,0c0,0-0.1-3.6-0.1-9.3
		c0-1.6,0-3.3,0-5.1c0.4-1.4,0.7-2.9,1-4.5l-0.5-0.2v-0.2l-0.4-0.2c0.3-13.5,1.5-30.6,4.8-42.4c0.1-0.4,0.2-0.8,0.4-1.2
		c3.9-12.8,4-28.4,5-41.6c0.8,1.7,1.4,3.4,2,5.1c0.5-0.6,1.1-1,1.7-1.4l3.9,31.4v37c0,0-6.5,47.7,14,38.8s5.6-41.6,5.6-41.6
		s0-18.2,2.8-27.6c1.8-6.2,0.7-26.1-0.4-39c2,0.4,3.2,0.6,3.2,0.6c0.5-1.9,0.7-3.8,0.6-5.7c0.4-21.6-26.2-56.3-37-69.6
		c-3.1-4.7-7.4-8.5-12.5-11L463.6,169c0,0-9.8-2.4-13.7-10c0-0.1-0.1-0.3-0.1-0.4c0.4-0.2,0.9-0.4,1.3-0.6c3.2-1.5,6-3.8,8.1-6.5
		c4.4-5.6,6.5-12.7,8.6-19.6c2.4-8.1,4.8-16.3,4.5-24.8s-3.9-17.2-11-21.6c-6.1-3.8-14.6-4.5-18.4-10.7c-1-1.6-1.6-3.6-3-4.9
		c0-0.6-0.4-1.1-0.9-1.2l-10.5-2.1c-0.6-0.1-1.2,0.3-1.3,0.9c0,0,0,0,0,0v0.1c-9.4,0.3-18.6,2.6-26.9,6.8c-3,1.4-5.8,3.1-8.5,5
		c-3.9,2.7-7.6,6.3-8.2,11c-0.3,2.3,0.3,4.7-0.2,7c-1.3,6.1-9.5,10.1-8.3,16.2c0.8,4.2,5.5,5.9,9.9,6c-4.9,17.7,5.4,36,23,40.9
		c0.7,0.2,1.5,0.4,2.2,0.5c3.2,4.5,6,9.3,8.4,14.3c-5.4,5.1-16.7,17-9.8,21l-14.4,35.6l1.4,36.7l-6.1,5.4l1.3,1.7
		c-6.8,7.9-22.5,25.2-34,29.8c-1.7,0.7-3.3,1.5-4.8,2.4c-2.1,1.3-4.4,2.3-6.9,2.7c-1.1,0.1-2.1,0.3-3.2,0.6l-2.8-5.7
		c-1-2-3.4-2.9-5.5-1.9c0,0,0,0,0,0l-1.7,0.8l0,0l-4,1.9l-1.7,0.8l0,0l-1.3,0.6c-2,1-2.9,3.4-1.9,5.5l3.3,6.9
		c-4.7,4.2-7,9.1-0.6,13.8c2.5,1.8,5.5,2.8,8.5,2.7l2,4.2c1,2,3.4,2.9,5.5,1.9c0,0,0,0,0,0l2.9-1.4l5.7-2.7c2-1,2.9-3.4,1.9-5.5
		c0,0,0,0,0,0l-1.7-3.5c3.7-2.9,7.1-6.2,10.2-9.8c0,0,8.5-5.4,13.6-6.5c3.3-0.8,15-8.5,22.2-13.3l2.1,54c-0.5,0.7-1,1.4-1.6,1.9
		l1.6-1.1v0.4c-0.2,0.3-0.4,0.5-0.7,0.7l0.7-0.5v0.6c-0.2,0.3-0.5,0.5-0.7,0.8l0.7-0.5l0.3,5.7l3.5-5.8l0.2,5.8l0.8-1.4
		c-9.9,16.8-22.8,41.5-29.6,66.4c0,0-10.8,18.7-9.4,37.9l-19.6,95l0.4,0.1c-6.4,4.6-19.9,13.1-33.1,13.4c0,0-31.8-0.9-22.9,6.1
		s88,17.3,88,17.3l3-23.7l0.7,0.3c0,0,0-0.1,0-0.4l1,0.4c0,0-1.9-11.8,5.1-18.3s23.4-73,22-83.3c0,0,12.6-31.4,28.3-56.4l18.5,47.5
		l20.6,35.5c0,0,27.4,60.9,26.5,74.4c-5.8,7-16,18-23.7,17.7c0,0-31.3,6.1-9.8,11.7s84.7-15.4,84.7-15.4L548.2,566.7z M411.2,349
		l0.2-0.1c-1,1.5-2,3.2-3.1,5L411.2,349z"/>
	
		<linearGradient id="SVGID_00000011746061794069044500000010850419303413692328_" gradientUnits="userSpaceOnUse" x1="518.88" y1="215.625" x2="520.07" y2="215.625" gradientTransform="matrix(1 0 0 -1 -122.5 572.25)">
		<stop  offset="0" style="stop-color:#808080;stop-opacity:0.25"/>
		<stop  offset="0.54" style="stop-color:#808080;stop-opacity:0.12"/>
		<stop  offset="1" style="stop-color:#808080;stop-opacity:0.1"/>
	</linearGradient>
	<path style="display:inline;fill:url(#SVGID_00000011746061794069044500000010850419303413692328_);" d="M397.6,356.2
		c-0.8,0.6-1.2,0.9-1.2,0.9C396.8,356.8,397.2,356.5,397.6,356.2z"/>
	
		<linearGradient id="SVGID_00000132795313849510983960000003382894965730389666_" gradientUnits="userSpaceOnUse" x1="519.81" y1="214.685" x2="521.01" y2="214.685" gradientTransform="matrix(1 0 0 -1 -122.5 572.25)">
		<stop  offset="0" style="stop-color:#808080;stop-opacity:0.25"/>
		<stop  offset="0.54" style="stop-color:#808080;stop-opacity:0.12"/>
		<stop  offset="1" style="stop-color:#808080;stop-opacity:0.1"/>
	</linearGradient>
	<path style="display:inline;fill:url(#SVGID_00000132795313849510983960000003382894965730389666_);" d="M398.5,357.1
		c-0.8,0.6-1.2,0.9-1.2,0.9C397.7,357.8,398.1,357.5,398.5,357.1z"/>
	
		<linearGradient id="SVGID_00000112625967652109934690000013950374335408786314_" gradientUnits="userSpaceOnUse" x1="519.81" y1="215.625" x2="521.01" y2="215.625" gradientTransform="matrix(1 0 0 -1 -122.5 572.25)">
		<stop  offset="0" style="stop-color:#808080;stop-opacity:0.25"/>
		<stop  offset="0.54" style="stop-color:#808080;stop-opacity:0.12"/>
		<stop  offset="1" style="stop-color:#808080;stop-opacity:0.1"/>
	</linearGradient>
	<path style="display:inline;fill:url(#SVGID_00000112625967652109934690000013950374335408786314_);" d="M398.5,356.2
		c-0.8,0.6-1.2,0.9-1.2,0.9C397.7,356.8,398.1,356.5,398.5,356.2z"/>
	<path class="st22" d="M505.5,561.8c0,0-16.4,23.3-27.4,22.8c0,0-30.6,5.9-9.6,11.4s82.5-15,82.5-15l-7.3-23.8L505.5,561.8z"/>
	<path class="st23" d="M432.1,400.2l23.3,59.8l20.1,34.7c0,0,27.6,61.3,25.8,73.2l44-7.1c0,0-34.2-94-43.8-106.7c0,0-10-5.9-9.6-16
		l-12.3-59.8c0,0,12-11.6,5.3-26c-0.3-0.7-0.7-1.5-1.2-2.2c-9.2-15.5-43.8-6.9-43.8-6.9L432.1,400.2z"/>
	<path class="st24" d="M432.1,400.2l23.3,59.8l20.1,34.7c0,0,27.6,61.3,25.8,73.2l44-7.1c0,0-34.2-94-43.8-106.7c0,0-10-5.9-9.6-16
		l-12.3-59.8c0,0,12-11.6,5.3-26c-0.3-0.7-0.7-1.5-1.2-2.2c-9.2-15.5-43.8-6.9-43.8-6.9L432.1,400.2z"/>
	<g class="st25">
		<path d="M501.5,454.1c0,0-10-5.9-9.6-16l-12.3-59.8c0,0,12-11.6,5.3-26c-0.3-0.7-0.7-1.5-1.2-2.2c-4.4-7.5-14.9-9.4-24.4-9.2
			c9.2,0.1,18.8,2.1,23.1,9.2c0.4,0.8,0.8,1.5,1.2,2.2c6.7,14.5-5.3,26-5.3,26l12.3,59.8c-0.5,10,9.6,16,9.6,16
			c9.6,12.8,43.8,106.7,43.8,106.7l-42.6,6.8c0,0.1,0,0.2,0,0.2l44-7.1C545.2,560.9,511,466.9,501.5,454.1z"/>
	</g>
	<path class="st22" d="M351.4,551.7c0,0-18.2,15.5-36,16c0,0-31-0.9-22.4,5.9s85.7,16.9,85.7,16.9l3.4-26.7L351.4,551.7z"/>
	<g class="st25">
		<path d="M418.4,339.6c0,0-30.1,42.4-42,85.3c0,0-10.5,18.2-9.1,36.9l-19.1,92.6l35.1,13.2c0,0-1.8-11.4,5-17.8
			s22.8-71.2,21.4-81.2c0,0,21.9-54.7,43.8-76.2s32.8-26.4,36-44.9C489.6,347.7,438,322.8,418.4,339.6z"/>
	</g>
	<path class="st23" d="M417.5,339.6c0,0-30.1,42.4-42,85.3c0,0-10.5,18.2-9.1,36.9l-19.2,92.6l35.1,13.2c0,0-1.8-11.4,5-17.8
		c6.8-6.4,22.8-71.2,21.4-81.2c0,0,21.9-54.7,43.8-76.2s32.8-26.4,36-44.9C488.7,347.7,437.1,322.8,417.5,339.6z"/>
	<g class="st25">
		<path d="M437,333.3c22.6,0.3,50.8,13.9,50.8,13.9c-3.2,18.5-14.1,23.5-36,44.9S408,468.2,408,468.2c1.4,10-14.6,74.8-21.4,81.2
			c-6,5.6-5.3,14.9-5.1,17.2l1.4,0.5c0,0-1.8-11.4,5-17.8c6.8-6.4,22.8-71.2,21.5-81.2c0,0,21.9-54.7,43.8-76.2s32.8-26.4,36-44.9
			C489.1,347.2,459.8,333,437,333.3z"/>
	</g>
	<path class="st26" d="M395.2,273.5c0,0-21.8,27.1-36.5,33c-1.6,0.6-3.2,1.4-4.7,2.3c-2.1,1.3-4.3,2.2-6.7,2.6
		c-1.8,0.2-3.5,0.6-5.1,1.3c-7.6,3.5-25.3,13-13.6,21.4c14.6,10.5,34.2-13.7,34.2-13.7s8.3-5.2,13.2-6.4s27.4-16.9,27.4-16.9
		L395.2,273.5z"/>
	<polygon class="st27" points="399.3,268 390.6,275.8 403.4,291.8 	"/>
	<g class="st25">
		<polygon points="399.3,268 390.6,275.8 403.4,291.8 		"/>
	</g>
	<path class="st27" d="M421.2,177.2c0,0-20.8,17.8-12.1,22.8l-14,34.7l4.8,126.8l19.8-32.8l-13.5-71.1c0,0-3.9-42.4,7.2-52.5
		l10.6-21L421.2,177.2z"/>
	<g class="st25">
		<path d="M424.9,177.2c0,0-20.8,17.8-12.1,22.8l-14,34.7l4.8,126.8l19.8-32.8l-13.5-71.1c0,0-3.9-42.4,7.2-52.5l10.6-21
			L424.9,177.2z"/>
	</g>
	<path class="st26" d="M405.2,158.6c0,0,16.9,20.5,16.4,32.4s31.9-20.5,31.9-20.5s-12.3-15-9.1-31S405.2,158.6,405.2,158.6z"/>
	<path class="st26" d="M501.5,261.6l4.6,36.5v36c0,0-6.4,46.5,13.7,37.9s5.5-40.6,5.5-40.6s0-17.8,2.7-26.9s-1.4-49.2-1.4-49.2
		L501.5,261.6z"/>
	<path class="st28" d="M439,175.5c0,0-12.3,11.9-18.7,7.8l-8.8,21.8c-5.4,13.3-7.8,27.6-7.1,41.9l3.1,82.2l13.7-1.8l4.6-78l6.8-47.4
		L439,175.5z"/>
	<g class="st25">
		<path d="M449.2,162.9c0,0-16.2,11.2-20.7,20.8c0,0-0.5,10.5-4.1,15s-7.3,27.4-8.2,54.7s-5,63.9-5,63.9s-6.8,35.6-14.1,39.2
			c0,0,33.8-25.5,50.2-16.9s35.1,29.6,40.6,26.5c0,0-1.3-40,4.7-61.3c0.1-0.4,0.2-0.8,0.3-1.2c6.4-21,2.3-49.7,9.6-62
			c0,0,0-22.3-4.2-38.9c-2.2-8.6-8.1-15.8-16.1-19.6l-20.3-9.8C461.8,173.2,451,171.6,449.2,162.9z"/>
	</g>
	<g class="st25">
		<path d="M449.2,162.9c0,0-15.3,12.1-19.8,21.7c0,0-0.5,10.5-4.1,15s-7.3,27.4-8.2,54.7s-5,63.9-5,63.9s-6.8,35.6-14.1,39.2
			c0,0,33.8-25.5,50.2-16.9s35.1,29.6,40.6,26.5c0,0-1.3-40,4.7-61.3c0.1-0.4,0.2-0.8,0.3-1.2c6.4-21,2.3-49.7,9.6-62
			c0,0,0-22.3-4.2-38.9c-2.2-8.6-8.1-15.8-16.1-19.6l-20.3-9.8C462.7,174.1,451,171.6,449.2,162.9z"/>
	</g>
	<path class="st27" d="M449,162.7c0,0-15,11.4-19.6,21c0,0-0.5,10.5-4.1,15s-7.3,27.4-8.2,54.7s-5,63.9-5,63.9s-6.8,35.6-14.1,39.2
		c0,0,33.8-25.5,50.2-16.9s35.1,29.6,40.6,26.4c0,0-1.3-40,4.7-61.3c0.1-0.4,0.2-0.8,0.3-1.2c6.4-21,2.3-49.7,9.6-62
		c0,0,0-22.3-4.2-38.9c-2.2-8.6-8.1-15.8-16.1-19.6l-20.3-9.8C462.7,173.2,452.4,170.7,449,162.7z"/>
	<g class="st25">
		<path d="M490.7,189.4c0,0,46.3,52.7,39.9,77.8c0,0-23.7-5.5-30.1,1.8c0,0-5-16.9-20.1-26.5S451.5,171.6,490.7,189.4z"/>
	</g>
	<path class="st27" d="M490.7,188.5c0,0,46.3,52.7,39.9,77.8c0,0-23.7-5.5-30.1,1.8c0,0-5-16.9-20.1-26.5S451.5,170.7,490.7,188.5z"
		/>
	<g class="st25">
		<path d="M445.6,149.7c-0.7-3.7-0.1-4,0.7-8c3.2-16-39.2,19.2-39.2,19.2s2.4,2.9,5.3,7.1c2.2,0.4,4.4,0.7,6.6,0.7
			C430.5,168.6,439.8,158.8,445.6,149.7z"/>
	</g>
	<circle class="st26" cx="417.1" cy="133.9" r="32.4"/>
	<g class="st25">
		<path d="M388,125.1c-4.8,0.6-10.9-1-11.8-5.7c-1.2-6,6.8-9.9,8.1-15.8c0.5-2.2-0.1-4.6,0.2-6.8c0.5-4.6,4.2-8.1,8-10.7
			c11.9-8.3,26.4-12.2,40.8-10.9c1.8,0,3.6,0.6,5.1,1.6c1.6,1.3,2.2,3.4,3.2,5.1c3.7,6,12,6.7,17.9,10.4c7,4.4,10.4,12.9,10.7,21.1
			s-2,16.2-4.3,24.1c-2,6.7-4,13.6-8.4,19.1s-11.5,9.3-18.3,7.7c3.1-2.2,0.8-7.4-2.5-9.3s-7.5-2.1-10.4-4.7s-3.7-6.6-4.7-10.4
			c-1.2-4.7-2.9-9.5-6.3-13C408.5,120.1,396.3,124,388,125.1z"/>
	</g>
	<path class="st29" d="M388.9,124.6c-4.8,0.6-10.9-1-11.8-5.7c-1.2-6,6.8-9.9,8.1-15.8c0.5-2.2-0.1-4.6,0.2-6.8
		c0.5-4.6,4.2-8.1,8-10.7c11.9-8.3,26.4-12.2,40.8-10.9c1.8,0,3.6,0.6,5.1,1.6c1.6,1.3,2.2,3.4,3.2,5.1c3.7,6,12,6.7,17.9,10.4
		c7,4.4,10.4,12.9,10.7,21.1s-2,16.2-4.3,24.1c-2,6.7-4,13.6-8.4,19.1s-11.5,9.3-18.3,7.7c3.1-2.2,0.8-7.4-2.5-9.3
		s-7.5-2.1-10.4-4.7s-3.7-6.6-4.7-10.4c-1.2-4.7-2.9-9.5-6.3-13C409.4,119.7,397.2,123.5,388.9,124.6z"/>
	<path class="st30" d="M436.6,91.8l2.9-15c0.1-0.6-0.3-1.2-0.9-1.3c0,0,0,0,0,0l-10.3-2c-0.6-0.1-1.2,0.3-1.3,0.9c0,0,0,0,0,0
		l-2.9,15l-10,37.1l18.3,3.6L436.6,91.8z"/>
	<g class="st25">
		<circle cx="421.4" cy="134.6" r="16"/>
	</g>
	<circle class="st30" cx="421.4" cy="135.1" r="16"/>
	<circle class="st31" cx="421.4" cy="135.1" r="10.5"/>
	<circle class="st32" cx="421.4" cy="135.1" r="3.2"/>
	
		<rect x="430.3" y="83" transform="matrix(0.1917 -0.9815 0.9815 0.1917 260.2958 494.8665)" class="st33" width="0.5" height="12.8"/>
	<path class="st30" d="M331.2,307.1L331.2,307.1c3.9-1.9,8.5-0.2,10.4,3.6l9.7,20.1c1.9,3.9,0.2,8.5-3.6,10.3l0,0
		c-3.9,1.9-8.5,0.2-10.3-3.6l-9.7-20.1C325.7,313.6,327.3,308.9,331.2,307.1z"/>
	<g class="st25">
		<path d="M331.2,307.1L331.2,307.1c3.9-1.9,8.5-0.2,10.4,3.6l9.7,20.1c1.9,3.9,0.2,8.5-3.6,10.3l0,0c-3.9,1.9-8.5,0.2-10.3-3.6
			l-9.7-20.1C325.7,313.6,327.3,308.9,331.2,307.1z"/>
	</g>
	<path class="st30" d="M332.6,306.4L332.6,306.4c4-1.9,8.7-0.2,10.7,3.7l9.5,19.7c1.9,4,0.2,8.7-3.7,10.7h0c-4,1.9-8.7,0.2-10.7-3.7
		l-9.5-19.7C327,313.1,328.6,308.3,332.6,306.4z"/>
	
		<rect x="334" y="307.4" transform="matrix(0.9008 -0.4343 0.4343 0.9008 -106.0082 179.5973)" class="st28" width="12.1" height="28.7"/>
	
		<ellipse transform="matrix(0.9008 -0.4343 0.4343 0.9008 -112.058 184.5607)" class="st28" cx="347.9" cy="337.5" rx="1.4" ry="1.8"/>
	<polygon class="st34" points="815,422 859.4,474.2 879.1,513.3 893.6,481.7 913.2,505.6 969.1,307.5 969.1,-2 -18.8,-2 -29,306.6 
		156.5,339.4 	"/>
	<path class="st35" d="M-1.3,551.7v133.6h955.5l-15.3-32.4l-19.2-34.4l-2.1-21.4l-20.9-54.9l-4.3-7.6c0,0-8.9-17.5-9.4-19.8
		s-14.5-24.3-14.5-24.3l-18.3-36.4L835.8,424l-17.5-32.7l-10.6-25v-11.5l-72.8-6.7l-26,20.7l-40,1.8l-22.6,0.4l-94.1-4.6l-23-4.8
		L485,352l-37,0.4l-29.8,0.4l-46-8.5l-38.3-2.2l-32.4,4l-22.1-1.8l-4.3,3.6l-11.9-11.2l-26.4,5.8l-17.9-5.8l-19.2-4.9l-15.8,5.8
		l-17.5,1.3l-7.7-2.2l-8.1-2.7L-9.8,298.9L-1.3,551.7z"/>
	<polygon class="st36" points="786,202 774.5,178.8 763.4,173.9 760.5,144.4 743,146.7 740.7,187.6 762.2,205.8 	"/>
	<polygon class="st37" points="768.6,45.2 784.7,45.2 801.8,45.2 850.4,27.2 886.1,27.2 913.8,29.9 938.9,32.9 961.9,49.7 
		973.8,87.1 933.3,73.1 904.4,84.4 866.1,122.6 852.4,154.5 852.9,188.7 795.4,196.8 	"/>
	<path class="st38" d="M404.8,392.5l47.1-1.2l23.4,3.7l12.5,8.7l51,13.6l28.8,8.1l40.6,7l18.9,2.2l40,0.9l27.7-22.2l4.3-6.3
		l-1.1-3.9l10.6-3.6l6.4,7.9v9.4c0,0-2,13.6-2.3,14.1s-1.4,12.6-1.4,12.6s-1,9.3-0.3,10.3c0.7,1,5.7,11.7,5.7,11.7v11.5l-0.6,10.3
		c0,0-4.8,7.2-5.8,8.1c-1,0.9-9.2,3.7-10.9,4c-1.7,0.3-10.8-0.7-10.8-0.7l-39.6-23.5l-46.4-0.9l-21.4-2.1l-50.1,4.3l-35.5-3.3
		l-27-5.4l-5.4,2.7l-87-5.1L404.8,392.5z"/>
	<polygon class="st38" points="-1.3,548.3 29.2,570.5 58.2,580 101.9,591.4 133.7,591.4 147.3,597.4 163.8,601.6 181.9,622 
		201.2,632.2 223.9,632.2 243.8,629.2 243.8,614.2 254.6,605.8 254.6,584.8 245.5,574.6 222.8,559.7 166,552.5 115.5,548.3 
		81.4,528.5 57.6,521.3 41.1,508.1 -1.3,476.9 	"/>
	<polygon class="st39" points="-1.3,345.5 5.3,331.8 21.2,331.8 83.7,343.1 113.8,353.9 129.7,356.9 170,365.3 180.2,369.5 
		166,378.5 145,405.5 126.6,435.5 114.4,464.3 112.1,482.9 119.5,512.3 78.6,512.3 50.2,512.3 -5.4,473.9 	"/>
	<polygon class="st38" points="289.2,373.7 302.9,380.3 329,380.3 348.3,384.5 348.3,379.1 351.1,373.7 356.2,379.1 364.7,379.1 
		364.7,365.9 354.5,353.9 335.8,347.9 314.8,347.9 292.1,352.1 262.5,353.3 234.7,355.1 198.4,352.7 162.1,355.1 150.7,361.3 
		191,374.9 224.5,374.3 241,380.3 268.2,379.1 	"/>
	<path class="st40" d="M122.3,512.3l-9.5-35.4l4.7-13.8l9.1-21.6l7.7-15.5l11.5-18.7l17.7-22.8l3.8-4.4l11.5-7.2l11.1,3.8l33.4-0.4
		l22.6,8.2l30.2-4.9l25.1,2.7l40.2,3.1c0,0,18.9,0.2,19.6,0.2s42.6,6.5,42.6,6.5L374,466.7l-13.6-0.9l-4.7,7.2L341,526.3l-5.1,19.3
		l6.4,2.7l-8.7,7.6l-49.6,2.7l-9.2,7.9L208,546.8l-22.8,3.4l-41.5-5.2L132,529l-2.3-12.4L122.3,512.3z"/>
	<polygon class="st38" points="339.3,544.1 353,548.6 420.7,550.8 475.2,560.7 510.1,572.8 562.9,572.8 599.1,569.7 640.4,566.6 
		668.9,566.6 677,569.3 693.2,569.3 700.9,569.3 722.1,568.8 743.4,575.1 775.8,581.4 797.5,584.1 804.3,581.4 804.3,575.1 
		810.3,571.1 805.2,566.6 812.8,566.6 814.5,560.7 812,559.4 818.4,554.6 818.4,544.1 810.7,544.1 812,537.8 813.3,529.2 803,523.4 
		789.8,516.2 768.1,512.3 749,516.6 722.6,520.2 700.4,525.2 665.1,524.7 625.1,523.4 574.4,509 540.7,501.3 497.7,495 477.7,491.9 
		467.9,482.9 450,476.9 425.8,469.7 407,467.1 377.2,467.1 362.3,467.1 356.6,474 340.3,535.5 	"/>
	<polygon class="st41" points="738.3,401 747.3,398.3 744.3,409.3 741.5,419.5 722.1,428.7 693.4,441.7 648.9,467.1 644.4,479.1 
		625.5,496.2 611.4,502.7 597.8,497.5 584.2,489.6 571.2,493.2 560.3,475.9 564.6,467.1 590.6,448.3 599.1,441.5 618.9,440.4 
		628.5,438.1 661,414.1 673.8,427.6 692.3,432.3 	"/>
	<polygon class="st42" points="760.5,150 744.6,150 744.6,181.8 728.7,190.8 719.6,190.8 712.8,190.8 707.1,193.8 695.7,193.8 
		690.6,188.4 685.5,193.8 678.1,187.2 671.9,193.8 664.5,189 646.9,171.9 638.4,175.2 629.9,174.6 624.4,171.9 618.9,162.9 
		609.1,161.5 598,150 605.3,139.9 614,146.7 635.1,135.6 660.6,137.9 665.1,128 652.1,114.9 647.4,107.8 648.7,97 660.8,90.2 
		676.8,93.6 684.9,102.8 687,89.3 696.2,96.1 706,100.3 714.1,91.6 718.5,76.5 725.5,82.3 727.5,70.6 720.7,62.5 732.1,68.2 
		743.2,69.3 	"/>
	<polygon class="st43" points="744.1,55.6 724.3,39.8 707.7,32.9 697.2,43 604.2,139.6 614,146.7 635.2,135.7 637.1,135.9 
		660.6,137.9 665.9,128.2 652.7,114.9 648.2,106.5 653.5,93.2 667.3,91.3 676.8,93.6 684.9,102.8 687,89.3 706.3,101.7 715.9,92 
		719.8,76.9 726.1,83.1 728,70.8 743.4,70.3 	"/>
	<polygon class="st44" points="658.7,411.4 675,431.6 692.3,432.3 741.5,400.1 744.1,420.4 701.4,440.2 697.4,450.5 714.9,467.1 
		722.6,473.4 731.5,467.1 747.3,457.2 766.4,403.3 768.1,398.3 806,363.7 822.6,294.4 767.7,200.4 744.1,196.8 757.9,285.9 
		744.1,328.6 706.4,372.9 	"/>
	<polygon class="st45" points="744.1,185.1 757.1,208.1 760.5,193.8 822.6,303 883.1,338.1 909.1,360.1 945.3,370 939.3,391.3 
		933.8,433.4 949.5,459.9 956.8,459.9 956.8,236.4 922.3,220.2 878,204.9 841.4,168 818.4,136.1 804.8,117.2 792.8,117.2 
		801.8,174.8 806,196.8 771.5,173.4 784.7,200.4 	"/>
	<polygon class="st46" points="777.5,193.8 760.5,177 750,110.3 743.7,71 740.7,37.6 773.7,35.3 777.5,53.3 801.8,174.8 	"/>
	<polygon class="st47" points="987,91.5 930.7,54.7 861.2,113.7 850.4,166.6 858.4,203.5 975,250.8 	"/>
	<polygon class="st48" points="938.7,380.3 903.5,440.9 887.6,487.1 878.6,502.7 883.1,538.1 918.7,608.8 930.8,647.2 956.8,688 
		960.9,459.9 	"/>
	<polygon class="st49" points="362.3,467.1 257.7,445.6 376.7,459.9 374,466.7 	"/>
	<polygon class="st50" points="596.4,152.7 610.2,133.4 701,39.3 696,32.9 693.2,32.9 651.2,-5 608.9,10.6 592.1,27.2 577.6,45.7 
		567.1,69.7 559.2,102.1 562.3,114.6 	"/>
	<polygon class="st51" points="652.3,0.1 607.2,46.9 565.2,100.3 648,14.5 701,41.8 657.4,-2 	"/>
</g>
</svg>
